#!OML:ASF I:\Actors\actors\Patient Classification 2\Patient 1\Session 1\actor1.ASF
:FULLY-SPECIFIED
:DEGREES
132
root -0.526167 18.467 5.75051 -3.89048 -8.97539 -0.881869
lowerback 11.7823 -5.04092 0.391015
upperback 0.321586 -6.62955 0.313325
thorax -6.24989 -3.25658 1.23349
lowerneck -11.708 -5.65815 -6.72085
upperneck 29.676 -8.51665 5.54969
head 12.2515 -3.97727 2.02242
rclavicle 1.2374e-014 9.36773e-015
rhumerus -56.3785 -5.54356 -72.3947
rradius 70.6529
rwrist -10.1824
rhand -11.6804 -41.7111
rfingers 7.12502
rthumb 14.365 -71.194
lclavicle 1.2374e-014 9.36773e-015
lhumerus -26.6999 -23.8239 98.861
lradius 65.2486
lwrist 22.9627
lhand -9.66079 -23.2977
lfingers 7.12502
lthumb 16.3103 6.03637
rfemur 6.70756 5.07891 14.5078
rtibia 8.00241
rfoot -15.9048 -6.8384
rtoes -8.92128
lfemur -0.256138 4.06369 -13.0449
ltibia 26.2961
lfoot -23.0265 9.49534
ltoes -57.076
133
root -0.508621 18.4603 5.7397 -3.92887 -9.67819 -0.810591
lowerback 12.1501 -5.28965 0.500739
upperback 0.346548 -6.93996 0.334531
thorax -6.43624 -3.40771 1.28416
lowerneck -11.8297 -5.64894 -6.54277
upperneck 29.8196 -8.44429 5.17475
head 12.3005 -3.97113 1.85779
rclavicle 8.17145e-014 -1.39646e-014
rhumerus -56.1735 -5.44931 -71.959
rradius 71.3137
rwrist -10.8942
rhand -12.1585 -43.3186
rfingers 7.12502
rthumb 13.9043 -72.8338
lclavicle 8.17145e-014 -1.39646e-014
lhumerus -25.7267 -24.538 99.0401
lradius 65.4368
lwrist 22.401
lhand -10.6952 -23.8378
lfingers 7.12502
lthumb 15.3141 5.57516
rfemur 6.09108 5.78834 14.4336
rtibia 8.91398
rfoot -16.2597 -6.60958
rtoes -8.52211
lfemur -0.205167 4.74618 -13.0786
ltibia 26.4662
lfoot -23.1093 9.47697
ltoes -57.0698
134
root -0.489243 18.452 5.72903 -4.00223 -10.4669 -0.736962
lowerback 12.6081 -5.50357 0.643543
upperback 0.355532 -7.19723 0.35427
thorax -6.69524 -3.53212 1.31993
lowerneck -11.8912 -5.66022 -6.48608
upperneck 29.8959 -8.40864 4.92241
head 12.3257 -3.98175 1.75575
rclavicle 7.72309e-015 -1.78906e-015
rhumerus -56.0102 -5.47111 -71.3927
rradius 71.8247
rwrist -11.1509
rhand -12.8943 -44.2495
rfingers 7.12502
rthumb 13.1951 -73.812
lclavicle 7.72309e-015 -1.78906e-015
lhumerus -24.8696 -25.213 99.285
lradius 65.3679
lwrist 20.8496
lhand -10.8586 -24.6175
lfingers 7.12502
lthumb 15.1567 4.80745
rfemur 5.50315 6.58713 14.3579
rtibia 9.80307
rfoot -16.533 -6.42793
rtoes -8.45971
lfemur -0.10797 5.41151 -13.1282
ltibia 26.6439
lfoot -23.2258 9.53237
ltoes -57.0494
135
root -0.46777 18.4426 5.71909 -4.12488 -11.2999 -0.616205
lowerback 13.115 -5.68893 0.804424
upperback 0.396183 -7.41436 0.329897
thorax -6.95694 -3.63763 1.29925
lowerneck -11.9899 -5.68759 -6.52595
upperneck 29.941 -8.42768 4.86159
head 12.365 -4.00301 1.73297
rclavicle -5.36532e-014 1.16289e-014
rhumerus -55.8305 -5.57608 -70.86
rradius 72.2371
rwrist -11.3603
rhand -12.6239 -44.2797
rfingers 7.12502
rthumb 13.4557 -73.825
lclavicle -5.36532e-014 1.16289e-014
lhumerus -23.8183 -25.4555 99.2785
lradius 65.95
lwrist 21.864
lhand -8.15822 -23.7837
lfingers 7.12502
lthumb 17.7566 5.4256
rfemur 4.95794 7.43903 14.2213
rtibia 10.6715
rfoot -16.7673 -6.28518
rtoes -8.87166
lfemur 0.0436812 6.01472 -13.2522
ltibia 26.8151
lfoot -23.3974 9.68789
ltoes -56.9982
136
root -0.452175 18.4344 5.71362 -4.24733 -11.9967 -0.473391
lowerback 13.5027 -5.91622 0.879617
upperback 0.498958 -7.69917 0.319755
thorax -7.07294 -3.77561 1.3383
lowerneck -12.0437 -5.69658 -6.66541
upperneck 29.9216 -8.42108 4.89362
head 12.377 -4.01356 1.76727
rclavicle 2.6867e-014 -1.09332e-015
rhumerus -55.5186 -5.63732 -70.5033
rradius 72.6565
rwrist -12.1931
rhand -12.193 -43.8605
rfingers 7.12502
rthumb 13.871 -73.378
lclavicle 2.6867e-014 -1.09332e-015
lhumerus -22.7486 -25.8801 99.3247
lradius 66.1395
lwrist 22.592
lhand -7.07284 -23.7893
lfingers 7.12502
lthumb 18.8008 5.32209
rfemur 4.45392 7.83625 14.0581
rtibia 11.5475
rfoot -16.8458 -5.93109
rtoes -9.72689
lfemur 0.186896 6.67836 -13.3389
ltibia 26.9787
lfoot -23.499 9.65451
ltoes -56.9335
137
root -0.440468 18.4274 5.71197 -4.31661 -12.5936 -0.36396
lowerback 13.7785 -6.18246 0.929989
upperback 0.602981 -8.03785 0.346965
thorax -7.11612 -3.93982 1.42987
lowerneck -12.1753 -5.68187 -6.724
upperneck 29.9197 -8.36916 4.84231
head 12.4003 -4.00313 1.76117
rclavicle 1.61513e-016 6.55989e-015
rhumerus -55.1805 -5.66333 -70.2495
rradius 73.0633
rwrist -13.4873
rhand -12.5005 -43.3128
rfingers 7.12502
rthumb 13.5746 -72.8503
lclavicle 1.61513e-016 6.55989e-015
lhumerus -21.7575 -26.3024 99.4331
lradius 66.1485
lwrist 22.8525
lhand -6.57665 -24.1112
lfingers 7.12502
lthumb 19.2779 4.95323
rfemur 3.95649 8.22416 13.9542
rtibia 12.397
rfoot -17.0031 -5.67305
rtoes -10.5701
lfemur 0.266111 7.34548 -13.3544
ltibia 27.1659
lfoot -23.5858 9.46331
ltoes -56.8386
138
root -0.419491 18.4196 5.70711 -4.34572 -13.4 -0.252881
lowerback 14.1146 -6.38287 1.09193
upperback 0.681708 -8.27196 0.344802
thorax -7.24044 -4.05528 1.42138
lowerneck -12.3427 -5.68489 -6.68127
upperneck 29.9285 -8.34139 4.71163
head 12.4279 -4.00094 1.70321
rclavicle -9.47333e-014 7.95139e-015
rhumerus -54.9105 -5.77806 -69.9785
rradius 73.5204
rwrist -14.5543
rhand -12.7592 -43.1722
rfingers 7.12502
rthumb 13.3253 -72.7261
lclavicle -9.47333e-014 7.95139e-015
lhumerus -20.8646 -26.7236 99.5149
lradius 66.1778
lwrist 22.8923
lhand -6.4113 -24.2983
lfingers 7.12502
lthumb 19.4369 4.75022
rfemur 3.37712 8.60659 13.7763
rtibia 13.1393
rfoot -16.9557 -5.26431
rtoes -11.0905
lfemur 0.268868 8.01605 -13.443
ltibia 27.4321
lfoot -23.785 9.48379
ltoes -56.7615
139
root -0.394975 18.4108 5.69662 -4.32223 -14.3022 -0.180435
lowerback 14.5022 -6.54891 1.31773
upperback 0.758889 -8.44652 0.355748
thorax -7.40303 -4.14255 1.3887
lowerneck -12.5657 -5.70331 -6.72134
upperneck 29.9145 -8.34385 4.69296
head 12.4703 -4.00586 1.69546
rclavicle -2.97183e-014 1.59028e-015
rhumerus -54.6136 -5.96616 -69.7001
rradius 73.9809
rwrist -15.2939
rhand -12.8433 -43.3541
rfingers 7.12502
rthumb 13.2443 -72.9133
lclavicle -2.97183e-014 1.59028e-015
lhumerus -19.9511 -27.113 99.5451
lradius 66.1614
lwrist 22.7218
lhand -6.43899 -24.4926
lfingers 7.12502
lthumb 19.4103 4.55864
rfemur 2.78462 8.99782 13.6122
rtibia 13.6871
rfoot -16.7483 -4.84504
rtoes -11.1591
lfemur 0.143369 8.82075 -13.4907
ltibia 27.8142
lfoot -23.9913 9.54674
ltoes -56.808
140
root -0.365729 18.4002 5.68296 -4.22352 -15.0481 -0.36861
lowerback 14.954 -6.82025 1.85859
upperback 0.812147 -8.69812 0.434279
thorax -7.66415 -4.2743 1.28686
lowerneck -12.7204 -5.69445 -6.77077
upperneck 29.847 -8.29528 4.64794
head 12.472 -3.99409 1.68915
rclavicle 2.93207e-015 7.95139e-016
rhumerus -54.2728 -6.08221 -69.4856
rradius 74.3665
rwrist -15.9204
rhand -12.7321 -43.5147
rfingers 7.12502
rthumb 13.3514 -73.0669
lclavicle 2.93207e-015 7.95139e-016
lhumerus -19.0961 -27.2665 99.6034
lradius 66.0522
lwrist 22.5722
lhand -6.06686 -24.8351
lfingers 7.12502
lthumb 19.7681 4.17972
rfemur 2.1404 9.21679 13.7081
rtibia 14.3988
rfoot -16.6176 -4.36835
rtoes -11.1237
lfemur -0.0215542 9.64602 -13.2347
ltibia 28.1898
lfoot -24.086 9.45317
ltoes -56.919
141
root -0.319253 18.3857 5.67283 -4.17015 -15.7303 -0.825739
lowerback 15.5542 -7.20013 2.90471
upperback 0.894904 -8.99185 0.52539
thorax -8.05551 -4.44081 0.960651
lowerneck -12.8169 -5.66055 -6.73349
upperneck 29.7154 -8.19635 4.49476
head 12.4218 -3.96498 1.6368
rclavicle 7.24446e-014 -4.41302e-014
rhumerus -53.9315 -6.14241 -69.2945
rradius 74.7569
rwrist -16.5773
rhand -12.039 -43.7336
rfingers 7.12502
rthumb 14.0194 -73.2408
lclavicle 7.24446e-014 -4.41302e-014
lhumerus -18.3026 -27.2219 99.7106
lradius 65.8523
lwrist 22.536
lhand -5.67613 -25.3365
lfingers 7.12502
lthumb 20.1437 3.63912
rfemur 1.64782 9.08969 13.9998
rtibia 15.1312
rfoot -16.3638 -3.64682
rtoes -11.4967
lfemur -0.0367026 10.3487 -12.7457
ltibia 28.5833
lfoot -24.2745 9.35628
ltoes -56.9439
142
root -0.315405 18.3798 5.66925 -4.14749 -16.7462 -0.214977
lowerback 15.6768 -7.22444 2.29233
upperback 0.960463 -9.1298 0.50479
thorax -7.96175 -4.48732 1.30724
lowerneck -13.0706 -5.63228 -6.61042
upperneck 29.6727 -8.10161 4.27207
head 12.4333 -3.93297 1.53882
rclavicle 2.39039e-014 -1.35174e-014
rhumerus -53.5986 -6.22199 -69.1043
rradius 75.1897
rwrist -17.3326
rhand -11.1642 -43.9763
rfingers 7.12502
rthumb 14.8623 -73.4232
lclavicle 2.39039e-014 -1.35174e-014
lhumerus -17.5017 -27.2101 99.8232
lradius 65.573
lwrist 22.5449
lhand -5.6619 -25.9107
lfingers 7.12502
lthumb 20.1573 3.06348
rfemur 0.790834 9.94649 13.3642
rtibia 15.8472
rfoot -16.4181 -3.47776
rtoes -11.8431
lfemur -0.290059 11.2307 -13.3282
ltibia 28.9376
lfoot -24.5269 9.40277
ltoes -56.7431
143
root -0.297172 18.3713 5.66192 -4.08392 -17.6105 0.0451632
lowerback 16.0099 -7.36213 2.2349
upperback 0.9959 -9.30899 0.52637
thorax -8.09578 -4.56715 1.44348
lowerneck -13.3846 -5.60506 -6.46516
upperneck 29.7037 -8.01197 4.03579
head 12.4862 -3.90139 1.42946
rclavicle 1.10325e-014 3.18055e-015
rhumerus -53.2117 -6.30908 -68.9494
rradius 75.5222
rwrist -18.1251
rhand -10.5848 -44.1966
rfingers 7.12502
rthumb 15.4204 -73.6015
lclavicle 1.10325e-014 3.18055e-015
lhumerus -16.7744 -27.2648 99.9222
lradius 65.2742
lwrist 22.5819
lhand -5.76313 -26.3286
lfingers 7.12502
lthumb 20.06 2.65581
rfemur 0.01475 10.4643 13.026
rtibia 16.5582
rfoot -16.4352 -3.1249
rtoes -11.7502
lfemur -0.513052 12.0096 -13.5783
ltibia 29.2627
lfoot -24.6888 9.4236
ltoes -56.6406
144
root -0.271477 18.3622 5.65614 -3.94648 -18.4402 0.0769848
lowerback 16.3441 -7.55306 2.52071
upperback 1.03452 -9.49264 0.580411
thorax -8.27648 -4.65924 1.4344
lowerneck -13.6347 -5.56168 -6.44128
upperneck 29.6895 -7.91565 3.95124
head 12.521 -3.86286 1.40105
rclavicle -7.15873e-014 3.77691e-015
rhumerus -52.7915 -6.33834 -68.8516
rradius 75.8053
rwrist -18.9545
rhand -10.5184 -44.6168
rfingers 7.12502
rthumb 15.4844 -74.0167
lclavicle -7.15873e-014 3.77691e-015
lhumerus -16.0952 -27.2398 100.027
lradius 64.9456
lwrist 22.512
lhand -5.87936 -26.6468
lfingers 7.12502
lthumb 19.9483 2.34934
rfemur -0.801739 10.8373 12.8854
rtibia 17.3524
rfoot -16.4626 -2.64437
rtoes -11.6376
lfemur -0.716506 12.7324 -13.63
ltibia 29.5221
lfoot -24.7769 9.57238
ltoes -56.7862
145
root -0.245374 18.3536 5.65485 -3.81947 -19.2946 0.133097
lowerback 16.5634 -7.7261 2.77504
upperback 1.14151 -9.6611 0.638387
thorax -8.31406 -4.74571 1.42205
lowerneck -13.9525 -5.51643 -6.36508
upperneck 29.6383 -7.80193 3.80571
head 12.5484 -3.81651 1.34191
rclavicle 8.43592e-014 -9.54166e-015
rhumerus -52.3232 -6.3639 -68.809
rradius 76.1095
rwrist -19.7387
rhand -10.5072 -45.0191
rfingers 7.12502
rthumb 15.4952 -74.4181
lclavicle 8.43592e-014 -9.54166e-015
lhumerus -15.3473 -27.1539 100.102
lradius 64.5868
lwrist 22.4536
lhand -6.04033 -27.0518
lfingers 7.12502
lthumb 19.7936 1.96037
rfemur -1.52771 11.1789 12.7059
rtibia 17.9585
rfoot -16.3455 -2.19668
rtoes -11.8608
lfemur -0.909931 13.4364 -13.723
ltibia 29.8171
lfoot -24.9418 9.7254
ltoes -56.9106
146
root -0.219888 18.3455 5.65468 -3.7125 -20.0791 0.253536
lowerback 16.7749 -7.90521 2.95378
upperback 1.24673 -9.85043 0.702326
thorax -8.33624 -4.83961 1.46127
lowerneck -14.2283 -5.45357 -6.16415
upperneck 29.4644 -7.64591 3.52326
head 12.502 -3.75545 1.21854
rclavicle -8.55768e-014 1.07344e-014
rhumerus -51.7933 -6.45569 -68.6947
rradius 76.3327
rwrist -20.3456
rhand -10.8945 -45.3081
rfingers 7.12502
rthumb 15.1221 -74.7357
lclavicle -8.55768e-014 1.07344e-014
lhumerus -14.6189 -27.0161 100.183
lradius 64.2015
lwrist 22.5323
lhand -6.10127 -27.309
lfingers 7.12502
lthumb 19.735 1.70917
rfemur -2.18866 11.4778 12.4564
rtibia 18.47
rfoot -16.1985 -1.77875
rtoes -11.8134
lfemur -1.10506 14.0739 -13.8923
ltibia 30.106
lfoot -25.1603 9.81921
ltoes -56.8907
